<svg xmlns="http://www.w3.org/2000/svg" enable-background="new 0 0 500 500" viewBox="0 0 500 500" id="hamburger-menu"><path d="M375,65H125c-33.08,0-60,26.92-60,60v250c0,33.08,26.92,60,60,60h250c33.08,0,60-26.92,60-60V125
		C435,91.92,408.08,65,375,65z"></path><path fill="#fff" d="M340 371.17H160c-6.9 0-12.5-5.6-12.5-12.5s5.6-12.5 12.5-12.5h180c6.9 0 12.5 5.6 12.5 12.5S346.9 371.17 340 371.17zM340 312.5H160c-6.9 0-12.5-5.6-12.5-12.5s5.6-12.5 12.5-12.5h180c6.9 0 12.5 5.6 12.5 12.5S346.9 312.5 340 312.5zM340 253.83H160c-6.9 0-12.5-5.6-12.5-12.5s5.6-12.5 12.5-12.5h180c6.9 0 12.5 5.6 12.5 12.5S346.9 253.83 340 253.83z"></path><g><path fill="#fff" d="M365.05 130.67c-2.76 0-5 2.24-5 5v31.24c0 13.44-6.04 20.26-17.96 20.26s-17.96-6.82-17.96-20.26v-31.24c0-2.76-2.24-5-5-5s-5 2.24-5 5v31.24c0 18.95 10.45 30.26 27.96 30.26s27.96-11.31 27.96-30.26v-31.24C370.05 132.91 367.81 130.67 365.05 130.67zM300.77 130.39c-2.76 0-5 2.24-5 5V178l-34.21-42.79c-1.33-1.66-3.56-2.3-5.56-1.6-2 .7-3.35 2.59-3.35 4.72v54.06c0 2.76 2.24 5 5 5s5-2.24 5-5v-39.8l34.21 42.79c1.33 1.66 3.56 2.3 5.56 1.6 2-.7 3.35-2.59 3.35-4.72v-56.86C305.77 132.63 303.53 130.39 300.77 130.39zM183.53 133.26c-2.27-.37-4.5.86-5.4 2.97l-17.05 39.92-17.05-39.92c-.9-2.11-3.12-3.34-5.4-2.97-2.27.37-3.99 2.23-4.18 4.52l-4.48 54.2c-.23 2.75 1.82 5.17 4.57 5.39.14.01.28.02.42.02 2.57 0 4.76-1.98 4.98-4.59l2.82-34.11 13.73 32.14c.79 1.84 2.6 3.04 4.6 3.04s3.81-1.19 4.6-3.04l13.73-32.14 2.82 34.11c.23 2.75 2.65 4.8 5.4 4.57 2.75-.23 4.8-2.64 4.57-5.4l-4.48-54.2C187.52 135.49 185.8 133.62 183.53 133.26zM241.21 142.91c2.76 0 5-2.24 5-5s-2.24-5-5-5h-36.36c-2.76 0-5 2.24-5 5v53.08c0 2.76 2.24 5 5 5h36.36c2.76 0 5-2.24 5-5s-2.24-5-5-5h-31.36v-16.54h25.36c2.76 0 5-2.24 5-5s-2.24-5-5-5h-25.36v-16.54H241.21z"></path></g></svg>